<svg xmlns="http://www.w3.org/2000/svg" viewBox="0 0 1024 1024"><title>rock-cycle-logo</title><g id="Слой_2" data-name="Слой 2"><g id="Слой_1-2" data-name="Слой 1"><g id="Слой_1-3" data-name="Слой_1"><g id="_2672321770032" data-name=" 2672321770032"><path d="M613,666h34V788l4,1h59v31H613Zm117,0H835v31H764v29h67v31H764v31c17,1,57,1,75,1v31c-19,0-96,1-109,0ZM593,796c-21,43-136,41-139-49-2-62,49-92,97-84,15,2,34,12,38,22l-25,21c-3-2-6-6-10-8-26-15-66,3-64,47,1,33,27,54,55,46,10-3,15-9,20-15C573,781,587,794,593,796Zm-291,0c-2,6-10,13-15,16-21,14-51,15-74,6-64-23-68-119-5-148,29-14,67-12,91,14-4,4-9,7-13,11-5,4-9,6-13,10-7-5-10-10-23-11-30-4-53,20-51,53,2,32,30,52,56,44,11-4,13-9,19-15a169.65,169.65,0,0,1,14,10C293,789,298,794,302,796Zm57,24V767c0-14,1-12-6-22l-31-47c-7-11-14-22-21-32h41c3,0,16,24,18,28,4,8,11,23,16,28,3-2,15-24,18-28,3-5,14-26,18-28h39l-30,45c-4,7-28,39-28,47v62Zm71-389h34v57c15,1,49,0,66,0V431h34V585H530V518c-15,0-53,0-66,1v66H430Zm167,0H702v31H631v29h67c0,8,1,24,0,31H631v32h75v31c-30,1-77,0-109,0Zm-306,0H413v30H370l-10,38,35,1L344,604l12-77H323l12-66H291ZM410,192c51-5,89,25,93,70,6,51-26,87-71,92-52,5-90-25-94-71C333,231,364,197,410,192Zm-206,4c18-1,42,0,60,0s36,4,46,14c10,8,15,29,11,46-5,17-15,25-32,29l39,65H287l-25-48a57.36,57.36,0,0,0-4-7c-3-7-2-8-20-6v61H204ZM658,328c-15,22-55,34-90,20-28-10-48-35-49-72-1-39,19-65,45-76a90.89,90.89,0,0,1,52-7c15,3,34,12,38,22l-26,20c-25-26-76-9-74,41,1,21,12,36,26,43,19,9,43,0,49-13C633,308,654,324,658,328Zm20-132h34v63c4-2,49-52,54-57,3-4,4-6,9-6h41c-6,6-10,12-17,18l-34,36-8,8c-4,3-7,7-9,9,1,4,18,21,22,26,2,2,4,3,5,5l42,47c3,3,3,1,4,5H774l-62-72v72H678ZM171,69c-17,2-29,6-43,13-10,6-24,17-30,24-22,27-29,45-29,83V798c0,39-4,63,13,97,12,23,35,43,59,52,16,6,30,8,48,8H798c17,0,38,1,55-1a111.64,111.64,0,0,0,94-71c7-16,8-30,8-48V226c0-39,4-63-13-98-6-11-17-25-25-31-27-21-45-28-82-28H226C209,69,188,68,171,69Z" style="fill:#f5ee31"/><path d="M171,69c17-1,38,0,55,0H835c37,0,55,7,82,28,8,6,19,20,25,31,17,35,13,59,13,98V835c0,18-1,32-8,48a111.64,111.64,0,0,1-94,71c-17,2-38,1-55,1H189c-18,0-32-2-48-8-24-9-47-29-59-52-17-34-13-58-13-97V189c0-38,7-56,29-83,6-7,20-18,30-24C142,75,154,71,171,69ZM0,173V851c0,43,23,90,53,120l11,10c14,11,22,17,39,25,17,9,46,18,70,18H851c44,0,90-23,120-53l20-24c18-23,33-64,33-96V173c0-42-19-79-42-109L960,43C930,19,892,0,851,0H173c-24,0-53,9-69,17A147.63,147.63,0,0,0,77,33,130.2,130.2,0,0,0,59,48,120.94,120.94,0,0,0,43,64C31,78,26,86,17,103,9,119,0,149,0,173Z"/><path d="M467,285c-11,60-106,47-93-24C385,201,481,215,467,285Zm-57-93c-46,5-77,39-72,91,4,46,42,76,94,71,45-5,77-41,71-92C499,217,461,187,410,192Z"/><path d="M238,259V225c8-1,25-1,32,0,10,2,17,7,17,17,0,11-6,15-16,17C264,260,246,260,238,259Zm-34,91h34V289c18-2,17-1,20,6a57.36,57.36,0,0,1,4,7l25,48h41l-39-65c17-4,27-12,32-29,4-17-1-38-11-46-10-10-28-14-46-14s-42-1-60,0Z"/><path d="M430,585h34V519c13-1,51-1,66-1v67h34V431H530v57c-17,0-51,1-66,0V431H430Z"/><path d="M678,350h34V278l62,72h47c-1-4-1-2-4-5l-42-47c-1-2-3-3-5-5-4-5-21-22-22-26,2-2,5-6,9-9l8-8,34-36c7-6,11-12,17-18H775c-5,0-6,2-9,6-5,5-50,55-54,57V196H678Z"/><path d="M730,820c13,1,90,0,109,0V789c-18,0-58,0-75-1V757h67V726H764V697h71V666H730Z"/><path d="M597,585c32,0,79,1,109,0V554H631V522h67c1-7,0-23,0-31H631V462h71V431H597Z"/><path d="M593,796c-6-2-20-15-28-20-5,6-10,12-20,15-28,8-54-13-55-46-2-44,38-62,64-47,4,2,7,6,10,8l25-21c-4-10-23-20-38-22-48-8-99,22-97,84C457,837,572,839,593,796Z"/><path d="M658,328c-4-4-25-20-29-22-6,13-30,22-49,13-14-7-25-22-26-43-2-50,49-67,74-41l26-20c-4-10-23-19-38-22a90.89,90.89,0,0,0-52,7c-26,11-46,37-45,76,1,37,21,62,49,72C603,362,643,350,658,328Z"/><path d="M302,796c-4-2-9-7-14-10a169.65,169.65,0,0,0-14-10c-6,6-8,11-19,15-26,8-54-12-56-44-2-33,21-57,51-53,13,1,16,6,23,11,4-4,8-6,13-10,4-4,9-7,13-11-24-26-62-28-91-14-63,29-59,125,5,148,23,9,53,8,74-6C292,809,300,802,302,796Z"/><path d="M359,820h34V758c0-8,24-40,28-47l30-45H412c-4,2-15,23-18,28-3,4-15,26-18,28-5-5-12-20-16-28-2-4-15-28-18-28H301c7,10,14,21,21,32l31,47c7,10,6,8,6,22Z"/><polygon points="291 461 335 461 323 527 356 527 344 604 395 500 360 499 370 461 413 461 413 431 291 431 291 461"/><path d="M467,285c14-70-82-84-93-24C361,332,456,345,467,285Z" style="fill:#f5ee31"/><polygon points="613 820 617 820 710 820 710 789 651 789 647 788 647 785 647 666 613 666 613 820"/><path d="M238,259c8,1,26,1,33,0,10-2,16-6,16-17,0-10-7-15-17-17-7-1-24-1-32,0Z" style="fill:#f5ee31"/></g></g></g></g></svg>